<svg xmlns="http://www.w3.org/2000/svg" xmlns:xlink="http://www.w3.org/1999/xlink"
     width="264.0" height="152.0" viewBox="-64.0 -96.0 264.0 152.0" id="pt-svg">
<style>/*<![CDATA[*/@media (prefers-reduced-motion: reduce) { animateTransform, animate, animateMotion { display: none; } }/*]]>*/</style>
<defs>
</defs>
<title>Rack-and-pinion close-up</title>
<desc>A 24-tooth spur gear meshes with a rack on its pitch line. The spur's pitch radius is 6.0 mm. Linear rack travel equals spur angle (radians) times pitch radius.</desc>
<defs><marker id="vk-arrow" viewBox="0 -5 10 10" refX="9" refY="0" markerWidth="6" markerHeight="6" orient="auto-start-reverse"><path d="M0,-5L10,0L0,5z" fill="#3b6ea8"/></marker></defs>
<defs><marker id="vk-arrow-hl" viewBox="0 -5 10 10" refX="9" refY="0" markerWidth="6" markerHeight="6" orient="auto-start-reverse"><path d="M0,-5L10,0L0,5z" fill="#b8531a"/></marker></defs>
<g transform="scale(4.0 -4.0)">
<circle cx="0" cy="0" r="6.0" fill="none" stroke="#8a8a8a" stroke-width="0.175" stroke-dasharray="1.2,0.8" />
<g>
<circle cx="0" cy="0" r="6.0" fill="#c9d6e0" stroke="#1a1a1a" stroke-width="0.25" />
<path d="M6.0,0.0 L6.7,0.0" stroke="#1a1a1a" stroke-width="0.25" />
<path d="M5.79555495773441,1.5529142706151244 L6.471703036136758,1.734087602186889" stroke="#1a1a1a" stroke-width="0.25" />
<path d="M5.196152422706632,2.9999999999999996 L5.802370205355739,3.3499999999999996" stroke="#1a1a1a" stroke-width="0.25" />
<path d="M4.242640687119286,4.242640687119285 L4.737615433949869,4.737615433949868" stroke="#1a1a1a" stroke-width="0.25" />
<path d="M3.000000000000001,5.196152422706632 L3.350000000000001,5.802370205355738" stroke="#1a1a1a" stroke-width="0.25" />
<path d="M1.5529142706151244,5.79555495773441 L1.734087602186889,6.471703036136758" stroke="#1a1a1a" stroke-width="0.25" />
<path d="M3.6739403974420594e-16,6.0 L4.1025667771436333e-16,6.7" stroke="#1a1a1a" stroke-width="0.25" />
<path d="M-1.5529142706151238,5.79555495773441 L-1.7340876021868883,6.471703036136758" stroke="#1a1a1a" stroke-width="0.25" />
<path d="M-2.999999999999999,5.196152422706632 L-3.3499999999999988,5.802370205355739" stroke="#1a1a1a" stroke-width="0.25" />
<path d="M-4.242640687119285,4.242640687119286 L-4.737615433949868,4.737615433949869" stroke="#1a1a1a" stroke-width="0.25" />
<path d="M-5.196152422706632,2.9999999999999996 L-5.802370205355739,3.3499999999999996" stroke="#1a1a1a" stroke-width="0.25" />
<path d="M-5.795554957734409,1.5529142706151262 L-6.471703036136757,1.734087602186891" stroke="#1a1a1a" stroke-width="0.25" />
<path d="M-6.0,7.347880794884119e-16 L-6.7,8.205133554287267e-16" stroke="#1a1a1a" stroke-width="0.25" />
<path d="M-5.79555495773441,-1.5529142706151249 L-6.471703036136758,-1.7340876021868894" stroke="#1a1a1a" stroke-width="0.25" />
<path d="M-5.196152422706633,-2.9999999999999987 L-5.80237020535574,-3.3499999999999988" stroke="#1a1a1a" stroke-width="0.25" />
<path d="M-4.242640687119287,-4.242640687119283 L-4.7376154339498715,-4.737615433949866" stroke="#1a1a1a" stroke-width="0.25" />
<path d="M-3.0000000000000027,-5.19615242270663 L-3.350000000000003,-5.8023702053557376" stroke="#1a1a1a" stroke-width="0.25" />
<path d="M-1.5529142706151238,-5.79555495773441 L-1.7340876021868883,-6.471703036136758" stroke="#1a1a1a" stroke-width="0.25" />
<path d="M-1.102182119232618e-15,-6.0 L-1.23077003314309e-15,-6.7" stroke="#1a1a1a" stroke-width="0.25" />
<path d="M1.5529142706151218,-5.79555495773441 L1.734087602186886,-6.471703036136758" stroke="#1a1a1a" stroke-width="0.25" />
<path d="M3.000000000000001,-5.196152422706632 L3.350000000000001,-5.802370205355738" stroke="#1a1a1a" stroke-width="0.25" />
<path d="M4.242640687119284,-4.242640687119286 L4.737615433949867,-4.73761543394987" stroke="#1a1a1a" stroke-width="0.25" />
<path d="M5.19615242270663,-3.0000000000000027 L5.8023702053557376,-3.350000000000003" stroke="#1a1a1a" stroke-width="0.25" />
<path d="M5.795554957734408,-1.5529142706151293 L6.4717030361367565,-1.7340876021868945" stroke="#1a1a1a" stroke-width="0.25" />
<circle cx="0" cy="0" r="0.2" fill="#1a1a1a" />
</g>
<path d="M-10,6.0 L48.0,6.0" stroke="#8a8a8a" stroke-width="0.175" stroke-dasharray="1.2,0.8" />
<path d="M12.0,-3 L12.0,20.0" stroke="#b8531a" stroke-width="0.175" stroke-dasharray="2,1.5" />
<g id="pt-rackpin">
<rect x="0" y="6.0" width="22.0" height="8" fill="#d3b87a" stroke="#7a6845" stroke-width="0.25" />
<path d="M0.7853975,6.0 L0.7853975,6.7" stroke="#1a1a1a" stroke-width="0.175" />
<path d="M2.3561924999999997,6.0 L2.3561924999999997,6.7" stroke="#1a1a1a" stroke-width="0.175" />
<path d="M3.9269875,6.0 L3.9269875,6.7" stroke="#1a1a1a" stroke-width="0.175" />
<path d="M5.4977825,6.0 L5.4977825,6.7" stroke="#1a1a1a" stroke-width="0.175" />
<path d="M7.0685775,6.0 L7.0685775,6.7" stroke="#1a1a1a" stroke-width="0.175" />
<path d="M8.6393725,6.0 L8.6393725,6.7" stroke="#1a1a1a" stroke-width="0.175" />
<path d="M10.210167499999999,6.0 L10.210167499999999,6.7" stroke="#1a1a1a" stroke-width="0.175" />
<path d="M11.7809625,6.0 L11.7809625,6.7" stroke="#1a1a1a" stroke-width="0.175" />
<path d="M13.3517575,6.0 L13.3517575,6.7" stroke="#1a1a1a" stroke-width="0.175" />
<path d="M14.9225525,6.0 L14.9225525,6.7" stroke="#1a1a1a" stroke-width="0.175" />
<path d="M16.4933475,6.0 L16.4933475,6.7" stroke="#1a1a1a" stroke-width="0.175" />
<path d="M18.0641425,6.0 L18.0641425,6.7" stroke="#1a1a1a" stroke-width="0.175" />
<path d="M19.6349375,6.0 L19.6349375,6.7" stroke="#1a1a1a" stroke-width="0.175" />
<path d="M21.2057325,6.0 L21.2057325,6.7" stroke="#1a1a1a" stroke-width="0.175" />
<rect x="22.0" y="5.0" width="9.0" height="10" fill="#2a2a2a" stroke="#2a2a2a" stroke-width="0.25" />
</g>
<path d="M-1.2,6.0 L1.2,6.0" stroke="#3b6ea8" stroke-width="0.225" />
<path d="M0,4.8 L0,7.2" stroke="#3b6ea8" stroke-width="0.225" />
</g>
<g id="annotations">
<path d="M-38.400000000000006,0.0 L-41.400000000000006,0.0" stroke="#3b6ea8" stroke-width="0.6" />
<path d="M-38.400000000000006,-24.0 L-41.400000000000006,-24.0" stroke="#3b6ea8" stroke-width="0.6" />
<path d="M-38.400000000000006,0.0 L-38.400000000000006,-24.0" stroke="#3b6ea8" stroke-width="0.6" marker-start="url(#vk-arrow)" marker-end="url(#vk-arrow)" />
<text x="-42.400000000000006" y="-12.0" font-size="10.0" font-family="-apple-system, system-ui, sans-serif" fill="#1f3a5f" text-anchor="middle" dominant-baseline="middle">r = 6 mm</text>
<path d="M15.70795,-58.0 L15.70795,-73.0" stroke="#3b6ea8" stroke-width="0.6" />
<path d="M21.99113,-58.0 L21.99113,-73.0" stroke="#3b6ea8" stroke-width="0.6" />
<path d="M15.70795,-70.0 L21.99113,-70.0" stroke="#3b6ea8" stroke-width="0.6" marker-start="url(#vk-arrow)" marker-end="url(#vk-arrow)" />
<text x="18.849539999999998" y="-74.0" font-size="10.0" font-family="-apple-system, system-ui, sans-serif" fill="#1f3a5f" text-anchor="middle" dominant-baseline="middle">π·m = 1.57 mm</text>
<path d="M-60.0,-12.0 L1.6,-22.4" stroke="#3b6ea8" stroke-width="0.6" marker-end="url(#vk-arrow)" />
<text x="-60.0" y="-16.0" font-size="10.0" font-family="-apple-system, system-ui, sans-serif" fill="#1f3a5f" text-anchor="start" dominant-baseline="alphabetic">pitch point</text>
<path d="M-56.0,40.0 L-16.799999999999997,12.0" stroke="#3b6ea8" stroke-width="0.6" marker-end="url(#vk-arrow)" />
<text x="-56.0" y="36.0" font-size="10.0" font-family="-apple-system, system-ui, sans-serif" fill="#1f3a5f" text-anchor="start" dominant-baseline="alphabetic">24 teeth, module 0.5</text>
<path d="M68.0,32.0 L48.0,-48.0" stroke="#b8531a" stroke-width="0.6" marker-end="url(#vk-arrow-hl)" />
<text x="68.0" y="28.0" font-size="10.0" font-family="-apple-system, system-ui, sans-serif" fill="#b8531a" text-anchor="start" dominant-baseline="alphabetic">rack disengages</text>
<text x="184.0" y="48.0" font-size="13.0" id="pt-active-dim" font-family="-apple-system, system-ui, sans-serif" fill="#b8531a" text-anchor="end">Δr = 0.00 mm</text>
</g>
</svg>